<?xml version="1.0" encoding="UTF-8" standalone="no"?> <!-- Created with Vectornator for iOS (http://vectornator.io/) --><!DOCTYPE svg PUBLIC "-//W3C//DTD SVG 1.1//EN" "http://www.w3.org/Graphics/SVG/1.1/DTD/svg11.dtd">
<svg style="fill-rule:evenodd;clip-rule:evenodd;stroke-linecap:round;stroke-linejoin:round;" xmlns:vectornator="http://vectornator.io" xmlns:xlink="http://www.w3.org/1999/xlink" xmlns="http://www.w3.org/2000/svg" xml:space="preserve" version="1.1" viewBox="0 0 1080 1080">
<metadata>
<vectornator:setting key="DisplayWhiteBackground" value="0"/>
<vectornator:setting key="RulersVisible" value="1"/>
<vectornator:setting key="GridSpacing" value="36"/>
<vectornator:setting key="Units" value="Pixels"/>
<vectornator:setting key="New" value="1"/>
<vectornator:setting key="DynamicGuides" value="0"/>
<vectornator:setting key="SnapToPoints" value="0"/>
<vectornator:setting key="SnapToGrid" value="0"/>
<vectornator:setting key="SnapToGuides" value="1"/>
<vectornator:setting key="SnapToEdges" value="0"/>
</metadata>
<defs/>
<g id="Sun" vectornator:layerName="Sun">
<path stroke="#f57f50" stroke-width="3.97" d="M403.372+415.588C403.372+304.297+494.491+214.077+606.892+214.077C719.292+214.077+810.411+304.297+810.411+415.588C810.411+526.88+719.292+617.099+606.892+617.099C494.491+617.099+403.372+526.88+403.372+415.588Z" fill="#f57f50" stroke-linecap="butt" opacity="1" stroke-linejoin="round"/>
<path stroke="#f57f50" stroke-width="3.97" d="M604.626+156.467C600.095+143.195+597.917+128.694+597.838+114.657C597.787+105.415+599.638+96.5259+603.219+88.0152C613.382+63.8625+633.371+48.4498+638.718+86.467C641.757+108.082+638.96+137.611+629.47+157.526C627.438+161.791+621.111+184.219+614.606+182.338C606.192+179.904+605.371+157.291+604.892+151.423C602.99+128.151+604.983+107.822+610.634+85.7916C612.379+78.9899+620.005+60.2424+630.26+63.4C636.822+65.4202+634.931+79.3861+634.304+83.7544C631.263+104.94+623.825+125.729+622.013+147.153C621.586+152.195+622.609+163.697+616.729+165.388C616.729+165.388+606.502+137.52+612.664+160.065C615.193+169.317+611.933+137.37+613.612+129.706C616.545+116.321+618.696+103.096+622.516+89.9128C622.879+88.6596+626.48+72.3872+627.226+71.9877C628.267+71.431+631.328+70.7076+630.271+70.1832C624.392+67.2663+619.05+88.3123+618.062+91.1986C611.598+110.087+612.082+129.611+612.579+150.654C612.809+160.376+615.179+166.298+617.566+175.273C617.917+176.594+614.51+173.981+613.483+174.882C612.709+175.561+612.115+178.764+612.421+177.781C620.835+150.816+628.484+123.502+630.387+94.6321C630.67+90.3258+632.311+72.0583+628.304+69.262C620.541+63.8448+609.821+88.2619+609.034+90.1296" fill="#f57f50" stroke-linecap="butt" opacity="1" stroke-linejoin="round"/>
<path stroke="#f57f50" stroke-width="3.97" d="M590.748+659.462C584.186+681.965+579.324+713.986+582.547+737.43C583.393+743.578+586.221+757.128+593.531+758.121C600.233+759.032+604.828+745.558+604.99+740.024C605.579+719.808+601.158+702.582+597.097+682.822C596.416+679.505+596.576+663.995+591.791+662.404C591.428+662.283+591.673+671.795+590.676+682.16C589.146+698.07+588.921+714.446+588.989+730.433C589.015+736.544+589.559+743.394+592.451+747.529C593.651+749.246+597.268+754.372+596.211+752.563C588.763+739.817+593.295+714.344+593.373+698.293C593.404+692.031+592.86+685.911+592.854+679.696C592.852+678.027+590.25+674.238+591.823+674.796C594.341+675.69+596.885+676.504+599.416+677.358L591.964+674.874C594.495+673.989+596.911+672.654+599.557+672.218C601.552+671.889+600.805+676.08+601.147+678.073C602.962+688.64+601.87+700.778+601.885+711.448C601.895+718.971+606.213+759.292+591.255+757.519C585.066+756.785+581.829+740.963+581.504+735.473C580.936+725.88+581.247+660.99+589.82+656.301C601.531+649.894+604.708+674.723+606.024+679.847C612.221+703.978+623.85+738.16+605.946+760.079C589.045+780.77+575.518+752.148+573.61+737.43C570.553+713.849+575.468+678.599+586.282+657.548" fill="#f57f50" stroke-linecap="butt" opacity="1" stroke-linejoin="round"/>
<path stroke="#f57f50" stroke-width="3.97" d="M346.893+410.165C323.168+411.655+288.266+416.525+270.885+395.424C266.713+390.36+260.858+381.265+265.005+374.379C277.547+353.551+327.018+368.264+341.463+378.791C346.212+382.252+360.864+392.503+359.003+400.365C354.741+418.363+313.097+408.503+289.106+399.925C287.452+399.333+264.633+389.659+268.454+383.831C278.747+368.134+313.041+378.42+326.296+384.677C336.138+389.324+350.378+399.136+345.105+402.852C329.448+413.89+300.735+395.923+286.02+389.441C281.929+387.639+273.231+387.87+274.01+383.467C276.693+368.308+292.415+376.076+303.399+377.854C317.334+380.109+333.815+384.734+345.241+393.789C355.589+401.99+333.916+400.214+330.078+398.253L330.354+395.636C333.496+395.384+337.891+392.949+339.81+395.45C341.055+397.072+342.995+402.519+341.281+401.404C322.949+389.483+288.818+393.247+278.145+375.199C277.629+374.326+279.631+376.62+280.537+377.075C283.478+378.554+286.599+379.646+289.616+380.966C298.337+384.781+320.04+392.614+328.255+397.355C331.815+399.41+339.023+407.41+339.056+403.301C339.102+397.461+297.654+386.643+292.036+385.856C287.658+385.243+283.064+386.107+278.805+384.921C277.257+384.491+275.319+380.146+275.176+381.747C274.16+393.13+329.577+401.363+334.599+401.212C343.588+400.94+351.224+399.389+348.69+401.068C347.334+401.967+354.478+398.098+353.045+398.868C350.643+400.159+351.61+408.498+349.863+406.404C335.24+388.884+316.303+379.811+292.843+377.705C290.054+377.455+276.022+374.078+273.873+378.228C262.798+399.62+323.622+402.422+331.11+402.352C335.691+402.309+340.269+402.108+344.848+401.987" fill="#f57f50" stroke-linecap="butt" opacity="1" stroke-linejoin="round"/>
<path stroke="#f57f50" stroke-width="3.97" d="M413.584+232.419C406.812+226.72+399.23+221.863+393.269+215.321C382.01+202.964+355.281+156.112+382.685+144.99C408.39+134.558+440.29+194.014+444.551+213.524C445.914+219.764+449.335+238.469+441.698+243.604C434.187+248.654+422.23+238.887+417.592+234.382C408.768+225.81+368.452+173.144+382.573+159.49C399.947+142.691+428.379+195.534+434.787+207.709C438.488+214.741+446.12+226.545+444.979+235.191C444.824+236.37+445.354+238.942+444.197+238.67C418.052+232.534+398.559+200.846+387.748+178.386C385.31+173.321+376.694+157.817+386.957+154.293C400.639+149.594+424.502+198.249+429.488+208.038C431.083+211.17+437.655+220.382+435.27+223.208C428.037+231.777+419.881+221.475+415.997+214.73C413.134+209.759+410.32+204.759+407.611+199.702C401.147+187.638+402.466+190.835+399.698+182.949L401.624+181.745C413.933+190.033+424.906+211.155+427.366+226.282C427.526+227.265+427.02+224.3+426.624+223.385C425.402+220.562+423.888+217.875+422.533+215.114C418.616+207.132+419.553+206.914+411.975+193.575C405.504+182.182+395.719+172.796+389.874+161.07C389.007+159.33+391.727+156.326+390.113+155.242C389.279+154.682+390.018+157.288+390.296+158.254C391.758+163.322+393.028+168.508+395.311+173.263C398.349+179.59+402.286+185.457+406.166+191.305C413.765+202.759+424.523+212.027+431.352+223.955C433.763+228.167+432.18+240.873+435.92+237.78C438.706+235.476+425.543+213.644+425.239+213.08C421.069+205.325+396.397+161.305+390.049+160.85C387.316+160.653+389.394+172.711+389.409+172.93C389.946+180.577+395.69+191.383+399.614+197.874C408.073+211.868+430.559+228.114+435.205+238.176C435.897+239.675+435.273+234.861+435.052+233.224C434.668+230.39+434.379+227.764+433.863+224.864C432.572+217.598+432.437+217.129+429.894+209.914C425.852+198.451+399.289+142.552+383.538+152.156C361.35+165.683+409.387+214.96+419.048+223.593" fill="#f57f50" stroke-linecap="butt" opacity="1" stroke-linejoin="round"/>
<path stroke="#f57f50" stroke-width="3.97" d="M383.543+596.285C368.84+607.359+356.706+619.142+345.779+634.33C344.324+636.352+335.604+650.701+341.325+653.214C347.816+656.065+388.037+619.68+394.014+613.217C397.492+609.456+400.509+603.289+402.485+598.502C403.608+595.784+405.726+587.843+403.474+589.735C402.342+590.686+404.883+592.96+403.993+594.14C403.481+594.818+386.207+597.249+382.242+599.479C367.019+608.042+343.486+626.569+345.756+646.823C345.888+647.997+345.535+644.103+346.441+643.346C348.966+641.239+352.239+640.23+355.016+638.47C358.965+635.968+362.81+633.303+366.603+630.572C373.817+625.377+388.993+611.991+395.549+605.751C399.101+602.37+401.692+598.04+404.026+593.727C405.486+591.029+410.57+583.874+407.895+585.377C405.712+586.604+407.489+590.511+406.312+592.723C402.444+599.99+391.454+600.023+384.84+604.925C373.226+613.534+362.373+625.876+353.79+637.335C349.735+642.749+344.926+663.694+337.508+649.155C329.938+634.317+369.253+599.175+379.069+593.89C384.58+590.923+394.192+585.673+397.609+590.917C410.275+610.359+383.079+626.439+371.011+636.955C369.139+638.586+355.609+648.312+352.739+643.362C343.041+626.635+382.799+592.698+389.389+609.479L387.427+612.958C390.549+609.825+378.48+614.981+375.073+617.802C369.131+622.724+366.155+631.406+359.118+634.572C357.087+635.486+351.739+634.031+352.609+636.081C353.719+638.701+362.604+632.26+364.374+630.434C370.469+624.146+382.068+611.567+389.547+606.453C392.074+604.725+399.476+600.202+396.419+600.361C380.093+601.211+359.079+618.474+351.943+632.212C345.705+644.222+350.925+654.058+334.912+654.262C334.333+654.269+335.977+647.51+336.363+646.834C339.365+641.578+342.683+635.688+346.286+630.902C355.539+618.611+405.872+561.531+416.996+589.827C418.434+593.483+402.407+613.723+402.309+613.818C391.65+624.135+351.631+661.247+336.295+647.069C331.187+642.347+341.843+623.964+343.417+620.867C350.104+607.705+401.093+566.064+414.707+589.052C417.946+594.521+410.219+607.094+408.093+610.941C399.893+625.781+355.411+671.05+337.562+659.714C311.738+643.313+366.149+596.874+379.526+587.586" fill="#f57f50" stroke-linecap="butt" opacity="1" stroke-linejoin="round"/>
<path stroke="#f57f50" stroke-width="3.97" d="M855.209+441.553C871.589+421.414+911.751+423.918+935.357+430.284C946.322+433.241+960.498+440.184+956.896+454.344C949.469+483.537+855.817+468.4+850.417+450.741C846.939+439.369+869.096+435.385+876.554+434.3C896.2+431.443+946.805+427.413+949.411+449.778C950.378+458.078+936.046+459.948+931.122+461.689C922.355+464.791+868.084+462.802+865.777+452.341C861.829+434.445+937.835+428.808+940.237+442.818C942.853+458.076+892.601+457.784+882.189+457.57C881.058+457.547+870.126+456.689+870.145+453.19C870.237+436.672+906.508+448.68+916.607+444.406C918.983+443.4+914.432+449.473+912.2+450.766C908.484+452.919+903.918+448.12+899.626+447.953C889.507+447.561+866.742+439.169+859.286+449.204C858.613+450.11+858.369+446.182+859.439+445.822C862.365+444.84+865.576+444.717+868.385+443.439C872.126+441.736+883.192+438.804+886.025+434.924C887.263+433.228+881.334+438.912+880.362+439.131C873.224+440.74+868.827+439.16+861.722+443.174C858.868+444.787+851.156+450.544+854.304+449.629C858.036+448.545+867.21+442.07+874.212+440.001C878.062+438.863+889.12+435.588+885.154+434.97C879.736+434.125+884.651+439.262+882.689+439.663C876.343+440.961+868.851+439.645+863.03+442.983C859.449+445.036+849.892+450.118+853.849+451.295C858.041+452.541+855.183+447.042+855.221+446.952C856.072+444.945+875.319+444.375+877.167+437.044C877.256+436.69+876.318+436.392+876.126+436.702C872.701+442.226+866.774+441.219+863.845+447.062C861.836+451.07+874.604+448.333+878.776+448.909L878.776+454.561C877.149+454.77+869.694+456.463+866.572+455.27C841.673+445.758+875.193+424.497+881.425+440.677C882.568+443.644+876.248+444.387+873.498+445.982C869.57+448.259+845.644+461.244+848.912+445.653C851.212+434.679+888.704+427.349+889.258+436.081C889.776+444.253+851.581+451.462+850.519+449.037C844.211+434.645+879.868+426.585+888.752+433.56C898.896+441.525+844.346+461.019+853.911+443.829C862.028+429.243+916.591+437.626+917.85+451.548C917.976+452.947+914.828+452.542+914.651+452.55C905.472+452.977+883.446+459.149+875.514+454.363C874.681+453.861+877.935+453.983+878.109+453.025C878.512+450.81+877.395+448.577+876.97+446.366C876.901+446.012+876.324+446.686+876.003+446.849C874.254+447.743+879.923+447.098+881.885+447.205C885.763+447.416+889.646+447.559+893.529+447.661C903.578+447.925+914.156+447.707+924.087+446.097C925.676+445.839+927.975+445.876+928.772+447.275C929.574+448.684+934.923+449.301+933.346+448.926C915.402+444.659+898.234+447.356+880.159+448.631C877.177+448.841+873.522+443.337+871.685+445.695C871.538+445.884+883.475+449.111+884.131+449.299C892.008+451.568+898.05+453.147+906.171+452.639C912.93+452.217+919.98+453.252+926.58+451.649C928.209+451.253+938.098+447.904+938.316+448.657C939.745+453.591+937.824+450.287+938.779+450.441C940.221+450.673+936.156+449.143+934.779+448.657C932.814+447.963+930.781+446.941+928.57+446.677C920.624+445.726+912.223+445.006+904.214+444.541C885.937+443.481+874.271+445.185+857.808+451.356C857.763+451.373+859.608+446.38+853.989+442.64C851.488+440.975+860.098+443.474+862.694+444.987C868.41+448.317+872.548+451.634+879.308+453.438C893.507+457.227+952.322+460.502+946.226+451.123C932.715+430.336+876.664+442.783+855.379+441.044" fill="#f57f50" stroke-linecap="butt" opacity="1" stroke-linejoin="round"/>
<path stroke="#f57f50" stroke-width="3.97" d="M798.841+237.085C804.883+226.866+803.787+222.763+812.813+213.586C821.074+205.187+862.606+168.151+878.654+185.852C897.748+206.911+824.714+270.368+802.811+253.245C793.221+245.747+804.868+230.376+810.497+224.212C822.005+211.612+841.304+194.993+856.156+186.758C858.858+185.259+869.078+180.479+872.253+183.795C895.522+208.097+848.899+235.311+830.299+242.45C828.373+243.19+818.808+246.813+816.158+245.046C793.944+230.233+846.172+198.273+854.327+193.431C857.3+191.666+872.128+184.977+873.013+187.093C882.584+209.971+837.006+233.672+822.691+243.239C818.918+245.76+810.721+253.362+810.287+248.845C808.457+229.78+828.344+218.947+841.611+209.497C843.507+208.147+860.374+198.125+860.512+198.393C868.234+213.335+847.299+222.291+838.421+229.974C837.122+231.098+820.92+247.125+819.419+240.767C816.027+226.393+840.315+203.868+838.865+201.136C837.788+199.105+837.21+205.561+835.621+207.223C834.382+208.519+833.29+209.967+831.932+211.137C822.1+219.604+816.972+223.868+811.438+235.982C809.988+239.157+808.359+242.249+806.941+245.438C806.467+246.503+807.305+249.86+806.617+248.919C801.842+242.385+812.326+249.776+802.225+248.227C797.383+247.484+802.713+238.428+803.418+233.581C804.135+228.65+812.18+222.707+811.974+219.05C811.812+216.162+813.518+225.477+811.695+227.722C808.609+231.523+801.847+243.065+803.813+248.722C806.477+256.387+818.918+244.606+823.476+243.049L824.494+244.272C821.072+250.381+823.112+247.985+817.922+252.451C788.641+277.648+794.08+215.73+812.896+217.571C814.724+217.75+816.038+219.638+817.091+221.142C817.701+222.012+811.742+229.184+811.717+229.221C807.246+235.803+809.878+259.019+799.65+250.033C790.108+241.652+825.273+199.265+838.335+199.39C850.293+199.504+827.854+229.153+826.806+230.956C826.331+231.773+816.866+235.748+817.772+236.029C818.64+236.299+852.597+206.849+864.426+205.437C865.55+205.303+862.191+205.947+861.189+206.475C858.35+207.971+855.707+209.813+852.963+211.478C850.91+212.723+848.711+213.753+846.8+215.206C836.766+222.833+830.109+234.776+819.144+240.989C816.137+242.693+811.489+239.04+808.779+241.184C806.171+243.247+814.725+238.158+817.452+236.255C823.715+231.884+829.515+226.886+835.576+222.24C848.398+212.412+862.657+204.979+875.406+195.865C876.402+195.153+872.963+195.073+871.77+195.348C868.353+196.138+865.199+197.805+861.896+198.986C860.898+199.343+859.803+199.46+858.87+199.963C849.215+205.161+834.522+212.39+828.193+222.022C825.945+225.443+823.721+228.88+821.486+232.309C820.39+233.991+813.895+234.318+815.891+234.538C831.468+236.256+850.868+219.762+861.231+209.718C863.182+207.826+871.563+192.465+871.159+192.413C862.743+191.333+806.977+236.443+807.678+245.589C807.879+248.214+826.099+242.026+826.721+241.802C842.753+236.037+854.183+221.009+865.959+209.517C868.058+207.469+878.428+197.582+874.984+193.193C858.645+172.375+810.799+228.786+806.079+239.8" fill="#f57f50" stroke-linecap="butt" opacity="1" stroke-linejoin="round"/>
<path stroke="#f57f50" stroke-width="3.97" d="M776.933+617.551C780.565+629.148+806.515+679.91+822.028+668.656C834.634+659.511+795.947+625.941+790.628+622.087C784.542+617.677+779.305+614.26+772.981+613.289C772.586+613.229+771.498+613.25+771.803+613.508C772.066+613.73+773.15+613.467+772.832+613.599C772.036+613.927+774.759+613.016+775.415+613.574C782.466+619.575+787.991+638.561+794.554+646.735C798.437+651.571+803.945+654.955+809.317+657.87C811.288+658.94+818.234+658.496+815.998+658.678C813.434+658.887+814.674+658.706+813.798+656.116C810.15+645.339+801.711+637.826+792.998+630.916C788.116+627.043+783.376+622.832+778.501+618.904C777.096+617.772+772.264+615.702+774.065+615.802C795.25+616.983+800.663+647.016+817.527+653.451C820.349+654.528+811.451+659.033+809.197+657.022C801.359+650.029+796.128+642.086+787.779+635.289C785.159+633.156+782.776+630.716+780+628.788C779.215+628.243+776.375+627.592+777.249+627.98C794.74+635.747+807.043+647.879+817.529+663.83L816.091+666.226C802.123+667.171+792.69+652.768+785.413+642.498C781.758+637.338+777.008+632.09+776.424+625.794C776.144+622.781+780.546+621.104+783.317+619.89C787.373+618.111+790.226+625.435+793.659+628.234C804.559+637.124+822.681+647.881+815.185+662.718C813.905+665.251+809.379+662.132+807.959+660.971C798.816+653.493+803.145+656.272+793.629+644.771C783.86+632.964+765.44+621.71+781.282+608.585C782.519+607.561+783.499+610.911+784.673+612.006C790.154+617.117+791.105+618.494+796.677+623.225C805.454+630.678+833.45+652.889+818.926+667.463C803.012+683.434+771.985+634.318+767.52+622.971C765.697+618.336+761.892+607.59+768.166+604.266C788.645+593.417+851.193+657.033+827.402+675.775C800.385+697.059+771.095+637.08+766.673+618.577" fill="#f57f50" stroke-linecap="butt" opacity="1" stroke-linejoin="round"/>
</g>
<g id="Sun copy" vectornator:layerName="Sun copy">
<path stroke="#ffb276" stroke-width="3.97" d="M394.032+409.84C394.032+298.549+485.151+208.329+597.551+208.329C709.952+208.329+801.07+298.549+801.07+409.84C801.07+521.132+709.952+611.351+597.551+611.351C485.151+611.351+394.032+521.132+394.032+409.84Z" fill="#f57f50" stroke-linecap="butt" fill-opacity="0.00520833" opacity="1" stroke-linejoin="round"/>
<path stroke="#ffb276" stroke-width="3.97" d="M595.286+150.719C590.754+137.447+588.576+122.946+588.498+108.909C588.446+99.6667+590.298+90.7779+593.879+82.2672C604.042+58.1145+624.03+42.7018+629.377+80.7191C632.417+102.334+629.619+131.863+620.13+151.778C618.098+156.043+611.771+178.471+605.265+176.59C596.851+174.156+596.03+151.543+595.551+145.675C593.65+122.403+595.643+102.074+601.294+80.0437C603.038+73.242+610.665+54.4944+620.92+57.652C627.481+59.6723+625.591+73.6381+624.964+78.0065C621.923+99.1918+614.485+119.981+612.672+141.406C612.246+146.447+613.268+157.949+607.388+159.64C607.388+159.64+597.162+131.772+603.323+154.317C605.852+163.569+602.592+131.622+604.272+123.958C607.204+110.573+609.355+97.3479+613.175+84.1648C613.539+82.9116+617.14+66.6392+617.886+66.2397C618.926+65.683+621.987+64.9596+620.931+64.4353C615.051+61.5183+609.709+82.5643+608.722+85.4506C602.257+104.339+602.742+123.863+603.239+144.906C603.469+154.628+605.839+160.55+608.225+169.525C608.577+170.846+605.17+168.233+604.142+169.134C603.369+169.813+602.774+173.016+603.081+172.033C611.494+145.068+619.144+117.754+621.046+88.8841C621.33+84.5778+622.97+66.3104+618.963+63.5141C611.201+58.0969+600.48+82.514+599.693+84.3816" fill="#f57f50" stroke-linecap="butt" fill-opacity="0.00520833" opacity="1" stroke-linejoin="round"/>
<path stroke="#ffb276" stroke-width="3.97" d="M581.407+653.714C574.845+676.217+569.983+708.238+573.207+731.682C574.052+737.83+576.88+751.38+584.191+752.373C590.892+753.284+595.488+739.81+595.649+734.276C596.239+714.06+591.818+696.834+587.757+677.074C587.075+673.757+587.236+658.247+582.451+656.656C582.087+656.535+582.333+666.047+581.336+676.412C579.805+692.322+579.581+708.698+579.649+724.685C579.675+730.796+580.219+737.646+583.11+741.781C584.31+743.498+587.927+748.624+586.871+746.815C579.423+734.069+583.954+708.596+584.033+692.546C584.064+686.283+583.52+680.163+583.514+673.948C583.512+672.279+580.91+668.49+582.483+669.048C585+669.942+587.545+670.756+590.076+671.61L582.623+669.126C585.154+668.241+587.571+666.907+590.216+666.47C592.212+666.141+591.465+670.332+591.807+672.325C593.622+682.892+592.529+695.03+592.544+705.7C592.555+713.223+596.872+753.544+581.915+751.771C575.726+751.037+572.488+735.215+572.163+729.725C571.595+720.132+571.906+655.242+580.479+650.553C592.191+644.146+595.367+668.975+596.683+674.099C602.88+698.23+614.51+732.412+596.606+754.331C579.704+775.022+566.178+746.4+564.27+731.682C561.213+708.101+566.128+672.851+576.942+651.8" fill="#f57f50" stroke-linecap="butt" fill-opacity="0.00520833" opacity="1" stroke-linejoin="round"/>
<path stroke="#ffb276" stroke-width="3.97" d="M337.552+404.418C313.828+405.907+278.925+410.777+261.544+389.676C257.372+384.612+251.518+375.517+255.664+368.631C268.206+347.803+317.678+362.516+332.122+373.043C336.871+376.504+351.524+386.755+349.662+394.617C345.401+412.615+303.756+402.755+279.766+394.177C278.112+393.585+255.293+383.911+259.114+378.083C269.407+362.386+303.701+372.672+316.955+378.929C326.798+383.576+341.037+393.388+335.765+397.104C320.108+408.142+291.395+390.175+276.68+383.693C272.588+381.891+263.89+382.122+264.67+377.719C267.352+362.56+283.075+370.328+294.058+372.106C307.993+374.361+324.474+378.986+335.901+388.041C346.249+396.242+324.576+394.466+320.738+392.505L321.013+389.888C324.156+389.636+328.55+387.201+330.47+389.702C331.714+391.324+333.655+396.771+331.941+395.656C313.609+383.735+279.477+387.499+268.804+369.451C268.288+368.578+270.291+370.872+271.196+371.327C274.138+372.806+277.259+373.898+280.276+375.218C288.996+379.033+310.699+386.866+318.915+391.607C322.474+393.662+329.683+401.662+329.715+397.553C329.762+391.713+288.314+380.895+282.696+380.108C278.317+379.495+273.724+380.359+269.464+379.174C267.916+378.743+265.979+374.398+265.836+375.999C264.819+387.382+320.237+395.615+325.258+395.464C334.248+395.192+341.883+393.641+339.349+395.32C337.994+396.219+345.137+392.35+343.705+393.12C341.303+394.411+342.27+402.75+340.522+400.656C325.899+383.136+306.962+374.063+283.503+371.957C280.714+371.707+266.682+368.33+264.533+372.48C253.457+393.872+314.282+396.674+321.77+396.604C326.35+396.561+330.928+396.361+335.507+396.239" fill="#f57f50" stroke-linecap="butt" fill-opacity="0.00520833" opacity="1" stroke-linejoin="round"/>
<path stroke="#ffb276" stroke-width="3.97" d="M404.243+226.671C397.472+220.972+389.89+216.115+383.928+209.573C372.67+197.216+345.94+150.364+373.344+139.242C399.05+128.81+430.95+188.267+435.21+207.776C436.573+214.016+439.995+232.721+432.357+237.856C424.847+242.906+412.889+233.139+408.252+228.634C399.428+220.062+359.112+167.396+373.232+153.742C390.606+136.943+419.039+189.786+425.447+201.961C429.147+208.993+436.779+220.797+435.639+229.443C435.483+230.622+436.014+233.194+434.857+232.922C408.711+226.786+389.218+195.098+378.407+172.638C375.969+167.573+367.354+152.069+377.616+148.545C391.299+143.846+415.162+192.501+420.147+202.29C421.742+205.422+428.314+214.634+425.929+217.46C418.697+226.029+410.54+215.727+406.656+208.982C403.794+204.011+400.979+199.011+398.27+193.954C391.807+181.89+393.126+185.087+390.358+177.201L392.284+175.997C404.592+184.285+415.565+205.407+418.025+220.534C418.185+221.517+417.68+218.552+417.284+217.637C416.062+214.814+414.547+212.127+413.192+209.366C409.276+201.384+410.212+201.166+402.635+187.827C396.164+176.434+386.379+167.048+380.534+155.322C379.667+153.582+382.387+150.578+380.773+149.494C379.938+148.934+380.677+151.54+380.956+152.506C382.418+157.574+383.687+162.76+385.97+167.515C389.008+173.842+392.945+179.709+396.826+185.557C404.425+197.011+415.182+206.279+422.011+218.207C424.423+222.419+422.84+235.125+426.58+232.032C429.366+229.728+416.202+207.896+415.899+207.332C411.728+199.577+387.056+155.557+380.709+155.102C377.975+154.905+380.054+166.963+380.069+167.182C380.606+174.829+386.349+185.635+390.273+192.126C398.733+206.12+421.218+222.366+425.864+232.428C426.556+233.928+425.933+229.113+425.711+227.476C425.327+224.642+425.038+222.016+424.523+219.116C423.231+211.85+423.097+211.381+420.553+204.167C416.512+192.703+389.949+136.804+374.197+146.408C352.009+159.935+400.046+209.212+409.707+217.845" fill="#f57f50" stroke-linecap="butt" fill-opacity="0.00520833" opacity="1" stroke-linejoin="round"/>
<path stroke="#ffb276" stroke-width="3.97" d="M374.501+590.078C359.798+601.152+347.664+612.935+336.737+628.123C335.282+630.145+326.562+644.494+332.283+647.007C338.774+649.858+378.995+613.473+384.972+607.01C388.45+603.249+391.467+597.082+393.443+592.295C394.566+589.577+396.684+581.636+394.432+583.528C393.3+584.479+395.841+586.753+394.951+587.934C394.439+588.612+377.165+591.042+373.2+593.272C357.977+601.835+334.444+620.362+336.714+640.616C336.846+641.79+336.493+637.896+337.399+637.139C339.924+635.032+343.197+634.023+345.974+632.263C349.923+629.761+353.768+627.097+357.561+624.365C364.775+619.17+379.951+605.784+386.507+599.544C390.059+596.163+392.65+591.834+394.984+587.521C396.444+584.822+401.528+577.667+398.853+579.17C396.67+580.397+398.447+584.305+397.27+586.516C393.402+593.783+382.412+593.816+375.798+598.718C364.184+607.327+353.331+619.67+344.748+631.128C340.693+636.542+335.884+657.487+328.466+642.948C320.896+628.11+360.211+592.968+370.027+587.683C375.538+584.716+385.15+579.466+388.567+584.71C401.233+604.152+374.037+620.232+361.969+630.748C360.097+632.379+346.567+642.106+343.697+637.155C333.999+620.428+373.757+586.491+380.347+603.272L378.385+606.751C381.507+603.618+369.438+608.774+366.031+611.595C360.089+616.517+357.113+625.2+350.076+628.365C348.045+629.279+342.697+627.824+343.567+629.874C344.677+632.494+353.562+626.053+355.332+624.227C361.427+617.939+373.026+605.36+380.505+600.246C383.032+598.518+390.434+593.995+387.377+594.154C371.051+595.004+350.037+612.268+342.901+626.005C336.663+638.015+341.883+647.851+325.87+648.055C325.291+648.062+326.935+641.303+327.321+640.628C330.323+635.372+333.641+629.481+337.244+624.695C346.497+612.404+396.83+555.324+407.954+583.62C409.392+587.276+393.365+607.516+393.267+607.611C382.608+617.928+342.589+655.04+327.253+640.863C322.145+636.14+332.801+617.757+334.375+614.66C341.062+601.498+392.051+559.857+405.665+582.845C408.904+588.314+401.177+600.887+399.051+604.734C390.851+619.574+346.369+664.843+328.52+653.507C302.696+637.107+357.107+590.667+370.484+581.379" fill="#f57f50" stroke-linecap="butt" fill-opacity="0.00520833" opacity="1" stroke-linejoin="round"/>
<path stroke="#ffb276" stroke-width="3.97" d="M845.869+435.805C862.249+415.666+902.41+418.17+926.016+424.536C936.981+427.493+951.157+434.436+947.555+448.596C940.129+477.789+846.477+462.652+841.077+444.993C837.599+433.621+859.755+429.637+867.214+428.552C886.86+425.695+937.464+421.665+940.071+444.03C941.038+452.33+926.705+454.2+921.782+455.941C913.015+459.043+858.744+457.054+856.436+446.593C852.489+428.698+928.494+423.06+930.897+437.07C933.513+452.328+883.261+452.036+872.849+451.822C871.718+451.799+860.786+450.941+860.805+447.442C860.896+430.924+897.168+442.932+907.267+438.658C909.642+437.652+905.091+443.725+902.86+445.018C899.143+447.171+894.577+442.372+890.286+442.205C880.167+441.813+857.401+433.421+849.945+443.456C849.272+444.362+849.029+440.434+850.099+440.075C853.024+439.092+856.236+438.969+859.045+437.691C862.786+435.988+873.852+433.056+876.684+429.177C877.923+427.48+871.993+433.164+871.022+433.383C863.883+434.992+859.487+433.412+852.382+437.426C849.528+439.039+841.815+444.796+844.963+443.881C848.696+442.797+857.869+436.322+864.871+434.253C868.721+433.115+879.78+429.84+875.813+429.222C870.395+428.377+875.31+433.514+873.349+433.915C867.003+435.213+859.511+433.897+853.69+437.235C850.108+439.288+840.551+444.37+844.508+445.547C848.701+446.793+845.843+441.294+845.881+441.204C846.731+439.197+865.979+438.627+867.826+431.296C867.916+430.942+866.978+430.644+866.786+430.954C863.36+436.478+857.433+435.472+854.504+441.314C852.495+445.322+865.264+442.585+869.435+443.161L869.435+448.813C867.808+449.022+860.354+450.715+857.231+449.522C832.332+440.01+865.853+418.749+872.085+434.929C873.228+437.896+866.908+438.639+864.157+440.234C860.229+442.511+836.303+455.496+839.571+439.905C841.872+428.931+879.364+421.601+879.917+430.333C880.435+438.505+842.241+445.714+841.178+443.289C834.87+428.897+870.528+420.837+879.412+427.812C889.556+435.777+835.005+455.271+844.571+438.081C852.687+423.495+907.251+431.878+908.509+445.8C908.636+447.199+905.487+446.794+905.31+446.802C896.131+447.229+874.105+453.401+866.174+448.615C865.341+448.113+868.594+448.235+868.769+447.277C869.172+445.062+868.055+442.83+867.629+440.618C867.561+440.264+866.983+440.938+866.662+441.101C864.913+441.995+870.583+441.35+872.544+441.457C876.423+441.668+880.306+441.811+884.189+441.913C894.237+442.177+904.815+441.959+914.746+440.349C916.336+440.091+918.635+440.128+919.432+441.527C920.234+442.936+925.583+443.553+924.006+443.178C906.062+438.911+888.894+441.608+870.818+442.883C867.837+443.093+864.181+437.589+862.345+439.947C862.198+440.137+874.135+443.363+874.79+443.551C882.668+445.82+888.71+447.399+896.831+446.891C903.589+446.469+910.64+447.504+917.24+445.901C918.869+445.505+928.757+442.156+928.976+442.91C930.405+447.843+928.484+444.539+929.439+444.693C930.88+444.925+926.815+443.395+925.439+442.909C923.474+442.215+921.44+441.193+919.229+440.929C911.284+439.978+902.883+439.258+894.874+438.793C876.596+437.733+864.931+439.437+848.468+445.608C848.422+445.625+850.267+440.632+844.649+436.892C842.147+435.227+850.757+437.726+853.354+439.239C859.07+442.569+863.207+445.886+869.968+447.69C884.166+451.479+942.982+454.754+936.885+445.375C923.374+424.588+867.324+437.035+846.038+435.296" fill="#f57f50" stroke-linecap="butt" fill-opacity="0.00520833" opacity="1" stroke-linejoin="round"/>
<path stroke="#ffb276" stroke-width="3.97" d="M789.5+231.337C795.542+221.118+794.447+217.015+803.473+207.838C811.733+199.439+853.265+162.403+869.314+180.104C888.408+201.163+815.374+264.62+793.47+247.497C783.88+239.999+795.527+224.628+801.156+218.464C812.664+205.864+831.964+189.245+846.815+181.01C849.518+179.511+859.738+174.731+862.913+178.047C886.182+202.349+839.558+229.563+820.959+236.702C819.033+237.442+809.467+241.065+806.817+239.298C784.604+224.485+836.832+192.525+844.986+187.684C847.96+185.918+862.788+179.229+863.673+181.345C873.243+204.223+827.666+227.924+813.35+237.491C809.578+240.012+801.38+247.614+800.947+243.097C799.117+224.032+819.004+213.199+832.27+203.749C834.166+202.399+851.033+192.377+851.172+192.645C858.894+207.587+837.959+216.543+829.08+224.226C827.782+225.35+811.579+241.377+810.079+235.019C806.686+220.645+830.975+198.12+829.525+195.388C828.447+193.357+827.869+199.813+826.28+201.475C825.041+202.771+823.95+204.219+822.591+205.389C812.759+213.856+807.631+218.12+802.098+230.234C800.648+233.409+799.019+236.501+797.6+239.69C797.126+240.755+797.965+244.112+797.277+243.171C792.502+236.637+802.986+244.028+792.884+242.479C788.043+241.736+793.372+232.68+794.077+227.833C794.795+222.902+802.839+216.959+802.634+213.302C802.472+210.414+804.178+219.729+802.355+221.974C799.268+225.775+792.506+237.317+794.473+242.974C797.137+250.639+809.578+238.859+814.135+237.302L815.154+238.524C811.732+244.633+813.771+242.237+808.581+246.703C779.3+271.9+784.74+209.982+803.556+211.823C805.384+212.002+806.697+213.89+807.751+215.394C808.36+216.264+802.402+223.436+802.376+223.473C797.906+230.055+800.538+253.271+790.309+244.285C780.768+235.904+815.932+193.517+828.994+193.642C840.953+193.756+818.513+223.405+817.466+225.208C816.991+226.025+807.525+230+808.432+230.281C809.3+230.551+843.257+201.101+855.085+199.689C856.21+199.555+852.851+200.199+851.849+200.727C849.01+202.223+846.366+204.065+843.623+205.73C841.57+206.975+839.371+208.005+837.46+209.458C827.426+217.085+820.769+229.028+809.803+235.241C806.797+236.945+802.148+233.292+799.438+235.436C796.83+237.499+805.385+232.41+808.112+230.507C814.374+226.136+820.174+221.138+826.236+216.492C839.058+206.664+853.317+199.231+866.066+190.117C867.061+189.405+863.623+189.325+862.43+189.6C859.012+190.39+855.858+192.057+852.556+193.238C851.558+193.595+850.463+193.712+849.53+194.215C839.874+199.413+825.181+206.642+818.852+216.274C816.604+219.695+814.381+223.132+812.146+226.561C811.049+228.243+804.555+228.57+806.55+228.79C822.128+230.508+841.528+214.014+851.89+203.97C853.842+202.078+862.222+186.717+861.818+186.665C853.403+185.585+797.636+230.695+798.338+239.841C798.539+242.466+816.758+236.278+817.381+236.054C833.413+230.289+844.842+215.261+856.619+203.769C858.718+201.721+869.088+191.834+865.643+187.445C849.305+166.627+801.459+223.038+796.739+234.052" fill="#f57f50" stroke-linecap="butt" fill-opacity="0.00520833" opacity="1" stroke-linejoin="round"/>
<path stroke="#ffb276" stroke-width="3.97" d="M767.593+611.803C771.225+623.4+797.175+674.162+812.688+662.908C825.294+653.763+786.606+620.193+781.287+616.339C775.202+611.929+769.965+608.512+763.641+607.541C763.246+607.481+762.158+607.502+762.463+607.76C762.726+607.982+763.809+607.719+763.491+607.851C762.696+608.18+765.419+607.268+766.075+607.826C773.126+613.827+778.651+632.813+785.213+640.987C789.096+645.823+794.605+649.207+799.976+652.122C801.948+653.192+808.893+652.748+806.658+652.93C804.094+653.139+805.334+652.958+804.457+650.368C800.809+639.591+792.37+632.078+783.657+625.168C778.775+621.295+774.036+617.084+769.161+613.156C767.756+612.024+762.923+609.954+764.725+610.054C785.909+611.235+791.323+641.268+808.186+647.703C811.009+648.78+802.111+653.285+799.857+651.274C792.018+644.281+786.788+636.338+778.439+629.541C775.818+627.408+773.435+624.968+770.659+623.041C769.874+622.496+767.035+621.844+767.908+622.232C785.4+629.999+797.703+642.131+808.188+658.082L806.751+660.478C792.783+661.423+783.35+647.02+776.073+636.75C772.417+631.59+767.667+626.342+767.083+620.046C766.804+617.033+771.205+615.356+773.976+614.142C778.033+612.363+780.885+619.687+784.318+622.486C795.219+631.376+813.341+642.133+805.844+656.97C804.564+659.503+800.039+656.384+798.619+655.223C789.476+647.745+793.805+650.524+784.289+639.023C774.52+627.216+756.1+615.962+771.942+602.837C773.178+601.813+774.158+605.163+775.333+606.258C780.814+611.369+781.765+612.746+787.336+617.477C796.114+624.93+824.109+647.141+809.586+661.716C793.671+677.686+762.644+628.57+758.18+617.223C756.357+612.588+752.551+601.842+758.825+598.518C779.305+587.669+841.852+651.285+818.061+670.027C791.044+691.311+761.754+631.332+757.333+612.829" fill="#f57f50" stroke-linecap="butt" fill-opacity="0.00520833" opacity="1" stroke-linejoin="round"/>
<path stroke="#ffb276" stroke-width="3.97" d="M495.462+382.23C499.753+405.837+496.137+366.372+495.92+366.368C494.479+366.338+498.974+385.168+498.956+383.27C498.943+381.86+494.904+365.481+494.282+365.28C490.503+364.057+495.29+373.186+495.228+377.157C495.181+380.129+494.135+387.483+496.679+391.146C498.279+393.449+495.535+385.595+495.676+382.794C495.817+379.989+497.714+368.792+493.738+366.092C492.853+365.492+495.267+368.611+494.396+369.23L492.984+368.994C488.978+351.788+514.259+378.528+496.889+393.668C488.269+401.181+484.453+365.893+496.705+363.266C501.589+362.218+506.283+386.609+493.375+384.665C487.929+383.845+492.407+363.699+496.006+362.084C507.143+357.085+497.098+403.844+491.978+389.131C491.183+386.847+491.112+384.371+490.679+381.991" fill="#ffb276" stroke-linecap="butt" opacity="1" stroke-linejoin="round"/>
<path stroke="#ffb276" stroke-width="3.97" d="M686.573+385.561C695.775+397.278+687.428+366.032+683.765+368.317C683.187+368.678+689.438+386.881+689.601+387.038C690.615+388.014+690.796+384.138+690.206+382.861C689.169+380.615+685.425+379.634+685.451+377.159C685.475+374.889+685.794+372.604+685.531+370.35C685.335+368.662+682.906+364.224+683.006+365.921C683.195+369.138+685.304+371.99+685.808+375.173C686.561+379.935+686.576+384.804+687.486+389.538C687.967+392.042+683.817+385.461+683.659+382.917C683.386+378.505+680.148+356.876+686.708+368.879C687.868+371.002+687.098+373.703+687.392+376.105C687.852+379.872+688.038+383.702+688.969+387.382C689.175+388.198+690.307+385.441+689.628+384.945C688.141+383.859+685.229+385.432+684.206+383.902C683.133+382.3+686.06+373.251+686.496+370.969L688.366+370.969C695.926+412.922+663.103+365.404+687.129+361.679C689.169+361.363+689.244+365.273+689.82+367.255C691.249+372.169+692.027+389.116+686.699+392.295C677.015+398.074+677.204+369.191+683.022+363.162C685.802+360.282+688.747+363.82+689.436+365.726C692.526+374.272+690.778+379.25+685.894+386.312C685.373+387.065+684.546+389.077+684.023+388.325C678.595+380.532+676.398+368.95+686.87+364.664C687.587+364.371+688.099+365.62+688.621+366.193C695.122+373.311+691.705+400.612+682.099+386.088" fill="#ffb276" stroke-linecap="butt" opacity="1" stroke-linejoin="round"/>
<path stroke="#ffb276" stroke-width="3.97" d="M571.504+437.244C573.334+444.328+582.632+457.609+592.108+453.318C599.004+450.195+604.663+436.807+606.274+429.225C607.038+425.628+605.714+415.802+608.331+418.386C610.321+420.351+612.381+422.3+613.955+424.611C619.042+432.079+598.706+455.515+585.918+452.549C575.831+450.21+571.924+442.328+570.271+431.053C569.814+427.935+569.609+425.081+569.271+421.993C569.147+420.864+568.659+417.495+568.71+418.631C568.814+420.983+571.347+440.203+577.067+445.441C596.401+463.145+602.662+420.784+607.933+414.473C609.762+412.283+613.278+415.265+613.715+417.407C621.785+456.972+550.609+471.555+569.312+417.222L570.337+417.563C572.448+422.828+572.133+428.927+573.232+434.7C581.393+477.553+610.413+417.905+612.371+417.23C612.432+417.209+612.238+417.188+612.179+417.215C611.295+417.618+608.391+428.212+607.245+431.425C604.646+438.715+601.186+450.702+593.114+453.913C575.054+461.097+566.004+442.422+565.03+427.915C564.753+423.797+567.619+410.745+573.415+418.631C580.082+427.699+573.058+450.307+592.247+446.834C602.072+445.056+604.408+432.387+606.858+424.02C607.683+421.204+616.824+417.876+614.535+419.712C611.321+422.291+610.155+439.287+608.053+443.625C597.368+465.672+572.553+461.714+566.907+438.394" fill="#ffb276" stroke-linecap="butt" opacity="1" stroke-linejoin="round"/>
</g>
<g id="Layer 1" vectornator:layerName="Layer 1">
<path stroke="#845da8" stroke-width="3.97" d="M-104.257+203.851L-102.466+203.851L-102.466+203.851L-104.257+203.851Z" fill="#845da8" stroke-linecap="butt" opacity="1" stroke-linejoin="round"/>
<g opacity="1">
<path stroke="#845da8" stroke-width="3.97" d="M202.404+582.464L324.23+582.464C341.903+582.464+356.229+596.79+356.229+614.463L356.229+982.057C356.229+999.729+341.903+1014.06+324.23+1014.06L202.404+1014.06C184.731+1014.06+170.405+999.729+170.405+982.057L170.405+614.463C170.405+596.79+184.731+582.464+202.404+582.464Z" fill="#845da8" stroke-linecap="butt" opacity="1" stroke-linejoin="round"/>
<path stroke="#845da8" stroke-width="3.97" d="M214.435+550.095L314.596+550.095C326.334+550.095+335.848+559.609+335.848+571.347L335.848+588.786C335.848+600.523+326.334+610.038+314.596+610.038L214.435+610.038C202.698+610.038+193.183+600.523+193.183+588.786L193.183+571.347C193.183+559.609+202.698+550.095+214.435+550.095Z" fill="#845da8" stroke-linecap="butt" opacity="1" stroke-linejoin="round"/>
<path stroke="#845da8" stroke-width="3.97" d="M278.683+412.695L317.988+551.088C325.047+575.944+309.824+596.094+283.985+596.094L247.817+596.094C221.978+596.094+206.754+575.944+213.813+551.088L253.119+412.695C260.178+387.839+271.623+387.839+278.683+412.695Z" fill="#845da8" stroke-linecap="butt" opacity="1" stroke-linejoin="round"/>
</g>
</g>
<g id="Layer 4" vectornator:layerName="Layer 4">
<g opacity="1">
<path stroke="#d9b0ff" stroke-width="2.34" d="M260.507+385.773C250.683+390.941+248.542+404.354+245.993+414.402C241.088+433.742+236.138+454.977+229.322+473.712C221.561+495.046+219.344+519.759+209.244+539.985C206.006+546.471+195.412+544.807+191.894+552.405C189.059+558.527+190.777+569.173+187.79+574.699C186.327+577.405+184.408+575.782+181.301+579.341C175.327+586.183+171.699+593.448+167.155+601.22C158.027+616.831+158.97+656.61+159.021+674.543C159.114+707.353+159.52+740.095+159.515+772.77C159.514+782.23+162.953+810.227+159.379+818.33C158.764+819.725+157.033+820.962+156.034+818.97L156.667+818.336C153.793+818.47+155.087+796.515+155.107+792.157C155.249+761.348+153.885+731.348+153.945+700.069C154.004+669.089+150.307+629.824+162.708+600.701C165.66+593.767+169.525+585.654+175.21+580.311C177.243+578.4+178.722+576.51+181.011+574.906C182.002+574.212+185.414+573.03+184.461+573.777C181.934+575.759+185.798+550.294+194.782+543.955C197.384+542.119+205.316+540.395+205.325+540.379C214.713+522.216+219.687+497.856+224.272+477.747C229.81+453.458+236.343+427.65+245.058+404.347C248.343+395.562+250.667+384.488+261.574+383.639" fill="#d9b0ff" stroke-linecap="butt" opacity="1" stroke-linejoin="round"/>
<path stroke="#d9b0ff" stroke-width="2.34" d="M159.257+812.408C158.758+853.472+162.288+894.765+160.591+935.735C159.818+954.399+157.397+982.738+171.486+998.364C186.929+1015.49+246.058+1008.09+267.129+1009.08C284.215+1009.89+320.189+1012.57+335.802+1003.93C345.09+998.784+353.663+966.535+351.449+954.714C350.74+950.929+352.049+944.035+351.711+938.829C350.303+917.135+350.71+896.098+351.282+874.377C352.289+836.126+346.527+798.074+346.205+760.132C346.088+746.465+346.434+689.25+348.955+688.426L350.726+688.256C354.025+688.667+353.281+712.751+352.713+720.891C350.083+758.589+356.093+797.617+355.067+836.825C354.383+862.938+353.132+890.403+354.49+916.431C356.142+948.114+361.053+978.2+341.12+1005.05C331.026+1018.65+279.054+1013.45+264.23+1013.91C238.248+1014.71+190.953+1018.94+168.71+1003.24C155.915+994.209+156.261+973.016+155.651+959.297C154.648+936.762+155.384+909.386+155.24+885.368C155.095+861.206+153.599+836.697+156.766+812.648" fill="#d9b0ff" stroke-linecap="butt" opacity="1" stroke-linejoin="round"/>
<path stroke="#d9b0ff" stroke-width="2.34" d="M348.814+689.59C346.817+665.478+349.903+641.736+349.949+617.61C349.96+611.508+352.231+595.322+347.757+590.299C343.047+585.012+331.905+583.378+330.17+581.081C328.474+578.837+328.042+560.461+326.316+555.253C323.188+545.816+315.974+548.861+311.249+543.269C308.681+540.23+304.573+522.85+305.813+522.506L309+520.912C311.19+521.465+316.797+536.33+316.675+540.272C316.654+540.941+314.215+539.258+314.868+539.402C316.138+539.68+320.022+540.091+318.726+539.979C317.305+539.857+321.313+541.184+322.622+541.752C324.591+542.608+327.587+545.305+328.581+547.241C332.526+554.928+337.851+568.866+334.145+577.804C333.916+578.358+333.679+576.291+333.082+576.353C331.206+576.548+336.803+577.011+338.621+577.512C345.104+579.3+352.78+584.082+354.121+591.463C359.883+623.194+353.348+657.72+350.708+689.59" fill="#d9b0ff" stroke-linecap="butt" opacity="1" stroke-linejoin="round"/>
<path stroke="#d9b0ff" stroke-width="2.34" d="M257.274+383.587C271.359+380.009+275.908+393.714+279.194+406.15C286.863+435.167+293.785+464.038+300.973+493.138C302.902+500.948+312.319+521.45+310.746+526.908L309.016+527.773C306.901+528.27+304.095+515.004+303.224+512.896C295.869+495.09+293.003+475.015+288.9+456.266C284.514+436.219+278.396+416.056+270.997+396.957C269.773+393.797+267.057+388.951+265.363+387.706C264.422+387.014+258.993+386.104+259.052+385.957" fill="#d9b0ff" stroke-linecap="butt" opacity="1" stroke-linejoin="round"/>
<path stroke="#d9b0ff" stroke-width="2.34" d="M159.503+661.593C174.829+659.327+194.328+666.041+209.627+667.555C236.49+670.213+264.483+667.726+291.449+666.657C303.859+666.165+315.918+663.729+328.228+662.71C332.968+662.317+343.34+662.203+338.313+662.09C337.001+662.061+343.417+661.007+342.211+661.528C341.44+661.861+340.542+661.727+339.715+661.874C339.144+661.974+341.911+661.166+341.392+661.422C340.169+662.024+346.6+660.098+345.435+660.806C342.797+662.407+343.365+660.609+346.422+661.1C346.652+661.137+345.549+661.396+345.783+661.387C345.877+661.383+349.451+659.771+349.178+660.805L351.09+663.465C346.742+668.27+346.304+664.248+341.662+668.059C341.054+668.558+343.189+667.678+343.937+667.437C344.87+667.136+341.966+667.772+341.112+668.254C340.792+668.435+339.71+668.684+340.073+668.627C341.209+668.449+337.816+669.067+336.676+669.218C335.117+669.425+333.568+669.591+332.018+669.795C327.511+670.387+322.924+670.349+318.417+671.063C304.814+673.219+291.472+673.593+277.71+673.585C257.669+673.573+237.025+676.597+217.093+674.244C197.668+671.951+178.208+667.555+158.868+665.477" fill="#d9b0ff" stroke-linecap="butt" opacity="1" stroke-linejoin="round"/>
<path stroke="#d9b0ff" stroke-width="2.34" d="M160.69+951.871C203.866+956.296+247.251+957.774+290.868+955.989C307.336+955.315+323.433+953.05+339.593+950.147C342.444+949.635+354.122+946.889+352.331+951.805L353.214+952.897C351.535+958.197+318.31+961.086+311.621+961.389C273.879+963.102+236.306+962.823+198.554+961.296C190.681+960.977+165.341+961.359+162.421+952.056" fill="#d9b0ff" stroke-linecap="butt" opacity="1" stroke-linejoin="round"/>
<path stroke="#d9b0ff" stroke-width="2.34" d="M200.276+723.671C203.431+727.52+200.865+713.716+200.399+713.183C199.108+711.705+201.695+717.018+201.479+718.968C201.149+721.956+200.361+722.731+201.697+725.611C202.259+726.823+200.374+723.115+200.496+721.784C200.55+721.2+201.712+711.832+199.824+713.167C199.637+713.3+200.917+717.043+200.864+717.65C200.362+723.301+200.198+719.627+200.85+727.677C200.858+727.776+201.074+727.988+201.055+727.891C199.816+721.718+203.127+714.19+199.952+715.529L198.79+714.754C202.361+703.87+208.111+726.846+200.546+729.19C194.192+731.159+194.542+711.058+202.023+711.163C204.302+711.195+204.952+726.227+198.934+726.435C195.426+726.556+196.754+712.558+200.154+711.409C204.999+709.772+204.137+733.039+196.899+723.848" fill="#d9b0ff" stroke-linecap="butt" opacity="1" stroke-linejoin="round"/>
<path stroke="#d9b0ff" stroke-width="2.34" d="M300.416+724.543C303.068+729.046+301.638+700.252+301.223+720.168C301.181+722.151+301.041+724.192+301.547+726.11C302.61+730.131+300.498+711.771+299.347+712.178C298.233+712.573+301.059+713.91+301.464+715.02C302.176+716.971+300.75+724.885+301.101+726.893C301.65+730.034+298.405+710.677+300.69+713.607L300.973+712.758C306.424+711.819+303.461+725.543+297.628+726.882C296.39+727.166+294.382+711.57+302.044+710C306.294+709.129+302.527+724.054+299.201+725.792C298.767+726.019+297.907+726.579+297.765+726.11C296.568+722.142+295.808+710.116+302.39+709.865C308.32+709.64+303.245+738.269+297.33+724.543" fill="#d9b0ff" stroke-linecap="butt" opacity="1" stroke-linejoin="round"/>
<path stroke="#d9b0ff" stroke-width="2.5" d="M162.318+915.884C190.413+937.823+194.135+903.315+223.659+906.785C238.382+908.515+241.825+923.107+253.894+926.539C276.464+932.956+284.709+905.126+306.316+907.682C317.837+909.046+321.037+916.501+329.356+922.444C340.036+930.073+347.184+922.376+350.537+918.455L350.628+918.455C355.614+924.284+345.618+935.874+334.471+933.594C318.238+930.273+314.298+911.528+295.903+917.15C291.395+918.528+288.428+923.296+285.019+926.188C276.557+933.365+266.029+935.861+255.006+934.101C239.093+931.56+233.471+911.75+216.701+913.628C192.944+916.289+182.446+945.724+159.643+917.891" fill="#d9b0ff" stroke-linecap="butt" opacity="1" stroke-linejoin="round"/>
<path stroke="#d9b0ff" stroke-width="2.5" d="M236.649+742.563C247.935+771.943+255.893+737.55+262.072+741.365C267.619+744.791+249.269+765.244+238.333+756.395C233.45+752.444+229.113+742.131+234.627+738.273C237.023+736.597+236.814+744.945+237.22+745.697C239.034+749.049+244.897+751.248+243.95+754.94L244.892+756.824C240.695+762.141+233.072+747.311+233.694+745.877C234.347+744.374+231.954+739.828+233.103+740.996C234.715+742.634+232.291+741.569+235.019+742.118C236.724+742.461+238.803+756.512+249.394+753.412C251.477+752.802+258.132+743.343+258.23+743.347C259.114+743.376+262.08+746.442+262.299+742.563C262.419+740.452+261.388+746.8+260.2+748.549C257.532+752.48+253.789+758.151+248.73+759.12C237.898+761.193+234.015+751.113+232.606+742.563" fill="#d9b0ff" stroke-linecap="butt" opacity="1" stroke-linejoin="round"/>
<path stroke="#d9b0ff" stroke-width="2.5" d="M205.433+576.654C213.6+572.301+251.013+579.399+262.387+579.881C268.049+580.12+275.933+577.43+279.793+581.994L279.089+583.056C278.845+582.461+278.194+584.119+277.562+584.237C272.542+585.169+266.837+585.324+261.749+585.08C249.472+584.491+214.076+584.281+205.451+576.504" fill="#d9b0ff" stroke-linecap="butt" opacity="1" stroke-linejoin="round"/>
<path stroke="#d9b0ff" stroke-width="2.5" d="M305.681+578.115C309.249+578.181+307.823+578.444+310.022+577.86L310.373+578.746C308.435+580.241+309.669+579.279+306.677+581.676" fill="#d9b0ff" stroke-linecap="butt" opacity="1" stroke-linejoin="round"/>
<path stroke="#d9b0ff" stroke-width="2.5" d="M214.653+534.197C220.442+536.669+260.856+540.136+269.166+538.431L269.228+538.604C265.031+544.718+216.042+542.999+212.053+540.959" fill="#d9b0ff" stroke-linecap="butt" opacity="1" stroke-linejoin="round"/>
<path stroke="#d9b0ff" stroke-width="2.5" d="M299.923+540.557C298.869+540.078+303.612+538.234+303.163+539.302C302.11+541.804+295.269+539.822+293.562+541.065C291.94+542.246+299.793+538.438+299.549+540.43C299.285+542.583+291.072+542.197+293.13+541.512C296.285+540.46+303.44+537.041+303.036+540.341C302.837+541.957+297.583+543.783+298.71+542.608C300.204+541.05+297.601+540.601+299.758+541.214C309.492+543.98+292.123+538.104+301.219+540.617C302.273+540.908+303.036+540.339+302.809+542.185C302.652+543.465+292.611+538.299+293.646+540.378C294.073+541.235+299.493+540.885+299.363+541.942C299.326+542.244+294.646+539.195+293.708+539.879C293.488+540.039+301.598+538.171+302.481+539.191" fill="#d9b0ff" stroke-linecap="butt" opacity="1" stroke-linejoin="round"/>
</g>
</g>
</svg>
